<svg width="593" height="562" viewBox="0 0 593 562" fill="none" xmlns="http://www.w3.org/2000/svg">
<g clip-path="url(#clip0)">
<path d="M214.293 107.146C214.306 124.418 210.138 141.436 202.146 156.747C194.153 172.058 182.574 185.207 168.395 195.071C164.402 197.866 160.22 200.381 155.879 202.599C154.439 203.338 152.988 204.04 151.511 204.705C150.18 205.315 148.841 205.887 147.483 206.432C130.642 213.251 112.347 215.692 94.3075 213.526C91.1855 213.157 88.1035 212.649 85.0612 212.002C84.9322 211.974 84.7934 211.947 84.6643 211.919C78.2935 210.572 72.0624 208.633 66.0519 206.128C48.1333 198.689 32.5702 186.526 21.0232 170.935C9.47617 155.345 2.37848 136.912 0.487376 117.603C-1.40373 98.2943 1.98273 78.8345 10.2854 61.2997C18.5881 43.7649 31.4955 28.8132 47.6305 18.0399C63.7654 7.26649 82.5225 1.07567 101.9 0.127949C121.278 -0.819768 140.55 3.51117 157.659 12.6587C174.769 21.8062 189.073 35.427 199.047 52.0679C209.022 68.7088 214.291 87.7453 214.293 107.146Z" fill="#F1F1F1"/>
<path d="M126.876 87.1488C126.784 87.038 126.682 86.9364 126.581 86.8348C120.856 81.0544 113.082 77.7657 104.947 77.6827C96.8118 77.5997 88.9724 80.7291 83.1308 86.3914C83.0663 86.4468 83.0109 86.5023 82.9554 86.5577C82.8814 86.6223 82.8169 86.6869 82.752 86.7516C79.8752 89.6213 77.5932 93.0305 76.0367 96.7839C74.4802 100.537 73.6799 104.561 73.6816 108.624V128.021C73.6833 129.123 74.1218 130.18 74.9009 130.959C75.68 131.738 76.7363 132.176 77.8382 132.178H131.411C132.513 132.176 133.57 131.738 134.349 130.959C135.128 130.18 135.566 129.123 135.568 128.021V108.624C135.576 100.607 132.458 92.9035 126.876 87.1488Z" fill="#2F2E41"/>
<path d="M105.867 131.986C118.396 131.986 128.553 121.829 128.553 109.299C128.553 96.7701 118.396 86.613 105.867 86.613C93.3372 86.613 83.1802 96.7701 83.1802 109.299C83.1802 121.829 93.3372 131.986 105.867 131.986Z" fill="#FFB7B7"/>
<path d="M129.712 107.368L127.034 88.6544C126.951 88.08 126.658 87.5566 126.211 87.1858C126.061 87.0651 125.896 86.9627 125.722 86.881C112.005 80.4614 98.0947 80.4614 84.378 86.8625C84.1949 86.9471 84.0239 87.0558 83.8697 87.1858C83.8146 87.232 83.7592 87.2874 83.7037 87.3428C83.3371 87.7215 83.1092 88.213 83.057 88.7376L81.2651 107.479C81.2349 107.799 81.2719 108.123 81.3737 108.428C81.4755 108.733 81.6399 109.014 81.8564 109.252C82.2052 109.636 82.6742 109.89 83.1864 109.973C83.3109 109.999 83.438 110.012 83.5652 110.01H88.1097C88.549 110.008 88.979 109.883 89.35 109.647C89.721 109.412 90.0179 109.077 90.2064 108.68L92.1737 104.468C92.2996 104.195 92.5112 103.97 92.7763 103.829C93.0415 103.687 93.3457 103.636 93.6426 103.683C93.9395 103.73 94.213 103.873 94.4213 104.089C94.6297 104.306 94.7615 104.585 94.7968 104.883L95.1847 107.987C95.2567 108.545 95.5287 109.057 95.9501 109.429C96.3715 109.801 96.9137 110.007 97.4759 110.01H127.43C127.822 110.012 128.208 109.91 128.548 109.714C128.785 109.585 128.997 109.417 129.176 109.216C129.393 108.964 129.553 108.669 129.645 108.35C129.738 108.031 129.76 107.696 129.712 107.368Z" fill="#2F2E41"/>
<path d="M161.967 173.55L168.395 195.071C164.402 197.866 160.22 200.381 155.879 202.599C154.439 203.338 152.988 204.04 151.511 204.705L144.851 176.154L142.265 165.079L158.891 163.232L161.967 173.55Z" fill="#FFB7B7"/>
<path d="M85.4584 169.975L84.9041 199.052L84.6642 211.919C78.2934 210.572 72.0622 208.633 66.0518 206.128L68.2595 178.584L68.8138 171.638L85.4584 169.975Z" fill="#FFB7B7"/>
<path d="M161.967 173.55L145.266 176.053L145.47 178.796L147.483 206.432C130.642 213.251 112.347 215.692 94.3072 213.526C91.1853 213.157 88.1032 212.649 85.061 212.002C86.4281 206.257 87.6106 201.084 86.1511 200.068C85.7113 199.76 85.2945 199.421 84.9041 199.052C78.0965 192.559 80.6091 177.9 80.6091 177.9L68.2594 178.584L63.9829 178.824C63.9829 178.824 65.8303 149.266 74.1433 149.266H84.3038L133.259 144.648C133.259 144.648 147.114 140.029 150.808 146.495C152.748 149.885 156.203 157.071 159.057 163.149C161.643 168.672 163.74 173.282 163.74 173.282L161.967 173.55Z" fill="#2F2E41"/>
<path d="M592.994 108.327C592.821 125.246 588.638 141.882 580.789 156.871C572.94 171.86 561.649 184.775 547.842 194.554C547.602 194.72 547.352 194.896 547.103 195.071C546.845 195.256 546.577 195.441 546.309 195.616C544.757 196.688 543.174 197.713 541.561 198.692C539.289 200.077 536.964 201.38 534.587 202.599C534.513 202.636 534.43 202.673 534.356 202.71C532.989 203.412 531.61 204.077 530.218 204.705C530.172 204.724 530.135 204.742 530.089 204.761C529.766 204.908 529.424 205.065 529.091 205.204C526.514 206.349 523.882 207.393 521.203 208.317C518.921 209.12 516.606 209.841 514.257 210.478C509.453 211.803 504.56 212.785 499.617 213.415C495.401 213.958 491.157 214.248 486.907 214.284C486.556 214.293 486.205 214.293 485.854 214.293C483.536 214.293 481.227 214.219 478.945 214.071C476.95 213.942 474.973 213.766 473.015 213.526C469.995 213.166 467.011 212.686 464.074 212.058C463.945 212.039 463.815 212.011 463.686 211.984C463.584 211.965 463.473 211.938 463.372 211.919C460.416 211.3 457.506 210.543 454.652 209.675C451.964 208.862 449.326 207.944 446.736 206.922C446.071 206.663 445.416 206.405 444.759 206.128C443.125 205.444 441.508 204.733 439.92 203.966C439.458 203.754 439.005 203.532 438.553 203.31C437.019 202.562 435.505 201.777 434.027 200.946C432.244 199.957 430.492 198.92 428.771 197.833C426.6 196.466 424.475 195.025 422.416 193.501C404.115 180.055 390.559 161.143 383.705 139.493C376.851 117.843 377.052 94.5751 384.28 73.047C391.507 51.5188 405.388 32.8437 423.919 19.7164C442.449 6.58918 464.671 -0.311329 487.378 0.0106546C546.131 0.826769 593.628 49.5713 592.994 108.327Z" fill="#F1F1F1"/>
<path d="M463.371 211.919C460.415 211.3 457.506 210.543 454.652 209.674L464.452 148.906L474.603 148.592L493.012 148.01L502.452 147.714C502.452 147.714 509.149 177.143 514.256 210.478C509.452 211.803 504.56 212.785 499.616 213.415C495.401 213.958 491.157 214.247 486.907 214.284C486.555 214.293 486.204 214.293 485.853 214.293C483.535 214.293 481.226 214.219 478.944 214.071C476.949 213.942 474.973 213.766 473.014 213.526C469.994 213.166 467.01 212.686 464.073 212.058C463.944 212.039 463.815 212.011 463.685 211.984C463.584 211.965 463.473 211.938 463.371 211.919Z" fill="#CBCBCB"/>
<path d="M464.074 212.058C463.945 212.039 463.815 212.011 463.686 211.984C463.584 211.965 463.473 211.938 463.372 211.919C460.416 211.3 457.506 210.543 454.652 209.675C451.964 208.862 449.326 207.944 446.736 206.922C446.071 206.663 445.416 206.405 444.759 206.128C443.125 205.444 441.508 204.733 439.919 203.966C439.458 203.754 439.005 203.532 438.552 203.31L437.74 157.81L462.679 147.123C462.679 147.123 462.762 147.788 474.603 148.592C476.857 155.944 464.074 212.058 464.074 212.058Z" fill="#2F2E41"/>
<path d="M538.614 155.658L533.913 180.366L534.356 202.71C532.989 203.412 531.61 204.077 530.218 204.705C530.172 204.724 530.135 204.742 530.089 204.761C529.765 204.908 529.423 205.065 529.091 205.204C526.514 206.349 523.881 207.393 521.203 208.317C518.921 209.12 516.606 209.841 514.257 210.478C509.452 211.803 504.56 212.785 499.616 213.415C495.401 213.958 491.157 214.248 486.907 214.284L486.417 174.686C485.383 161.921 488.81 153.478 493.012 148.01C515.411 145.017 514.912 144.749 514.912 144.749L538.66 155.436L538.614 155.658Z" fill="#2F2E41"/>
<path d="M448.426 161.375L446.736 206.922C446.071 206.663 445.415 206.405 444.759 206.128C443.124 205.444 441.508 204.733 439.919 203.966C439.457 203.754 439.005 203.532 438.552 203.31C437.019 202.562 435.504 201.777 434.026 200.946C432.243 199.957 430.491 198.92 428.771 197.833L437.739 157.81L448.426 161.375Z" fill="#2F2E41"/>
<path d="M547.841 194.554C547.601 194.72 547.352 194.896 547.102 195.071C546.844 195.256 546.576 195.441 546.308 195.616C544.756 196.688 543.174 197.713 541.56 198.692C539.288 200.078 536.963 201.38 534.586 202.599C534.513 202.636 534.429 202.673 534.355 202.71C532.947 203.433 531.526 204.117 530.091 204.762L530.088 204.761L528.398 159.057L538.614 155.658L539.085 155.501L547.841 194.554Z" fill="#2F2E41"/>
<path d="M511.347 113.363C515.452 99.3607 507.459 84.6908 493.493 80.5963C479.527 76.5018 464.878 84.5333 460.773 98.535C456.668 112.537 464.661 127.207 478.627 131.301C492.593 135.396 507.242 127.364 511.347 113.363Z" fill="#9F616A"/>
<path d="M459.522 112.573V102.291C459.522 102.291 451.23 92.5259 460.351 90.0659C460.351 90.0659 462.838 65.4668 484.396 76.9464C484.396 76.9464 514.246 72.0266 510.929 89.246C510.929 89.246 518.392 84.7505 515.904 96.2301L511.093 114.722C511.093 114.722 513.417 102.507 505.954 100.867L501.808 98.4068C501.808 98.4068 490.2 109.886 472.788 95.9469C472.788 95.9469 465.326 94.1658 466.155 101.546C466.984 108.925 459.522 112.573 459.522 112.573Z" fill="#2F2E41"/>
<path d="M403.647 430.433C403.66 447.705 399.492 464.723 391.5 480.034C383.507 495.345 371.927 508.494 357.749 518.358C357.491 518.543 357.223 518.727 356.955 518.903C355.403 519.974 353.82 521 352.207 521.979C349.935 523.364 347.61 524.667 345.233 525.886C343.793 526.625 342.342 527.327 340.865 527.992C340.495 528.158 340.116 528.334 339.738 528.491C337.161 529.636 334.528 530.68 331.849 531.603C324.853 534.057 317.618 535.766 310.263 536.702C305.699 537.289 301.102 537.582 296.5 537.58C294.182 537.58 291.873 537.506 289.591 537.358C287.596 537.229 285.62 537.053 283.661 536.813C280.511 536.434 277.398 535.926 274.332 535.27C274.231 535.252 274.12 535.224 274.018 535.206C267.647 533.858 261.416 531.919 255.406 529.414C253.771 528.731 252.155 528.019 250.566 527.253C248.562 526.311 246.597 525.304 244.673 524.232C228.134 515.095 214.306 501.747 204.59 485.542C194.874 469.336 189.616 450.85 189.349 431.957C189.081 413.064 193.814 394.437 203.068 377.963C212.322 361.489 225.767 347.755 242.04 338.153C258.313 328.552 276.836 323.424 295.73 323.289C314.625 323.155 333.218 328.019 349.627 337.388C366.035 346.758 379.674 360.299 389.161 376.639C398.648 392.98 403.645 411.538 403.647 430.433Z" fill="#F1F1F1"/>
<path d="M293.557 456.84C306.771 456.84 317.483 446.128 317.483 432.914C317.483 419.7 306.771 408.988 293.557 408.988C280.343 408.988 269.631 419.7 269.631 432.914C269.631 446.128 280.343 456.84 293.557 456.84Z" fill="#FFB8B8"/>
<path d="M283.661 536.813C280.511 536.434 277.398 535.926 274.332 535.27L277.241 469.8L277.657 469.366L283.614 463.076H302.559L309.551 469.846L310.142 470.428L325.097 484.754L331.849 531.603C324.853 534.057 317.617 535.766 310.262 536.702C305.698 537.289 301.101 537.582 296.5 537.58C294.182 537.58 291.872 537.506 289.591 537.358C287.595 537.229 285.619 537.053 283.661 536.813Z" fill="#CBCBCB"/>
<path d="M250.565 527.253C248.561 526.311 246.597 525.304 244.672 524.232C244.479 506.498 244.349 494.721 244.349 494.721L246.603 493.345C246.63 493.331 246.657 493.318 246.686 493.308L272.262 477.772L277.629 469.052L277.657 469.366L279.236 487.747C283.993 503.985 287.455 520.573 289.591 537.358C287.596 537.229 285.619 537.053 283.661 536.813C280.511 536.434 277.398 535.926 274.332 535.27C274.23 535.252 274.119 535.224 274.018 535.206C267.647 533.858 261.416 531.919 255.405 529.414C253.771 528.731 252.154 528.02 250.565 527.253Z" fill="#2F2E41"/>
<path d="M331.849 531.603C324.853 534.057 317.617 535.766 310.263 536.702C309.243 530.74 308.869 524.686 309.145 518.644C311.14 486.75 306.54 469.052 308.536 469.052L309.551 469.846L322.104 479.767L338.629 485.826H338.638L350.009 489.992L352.013 490.731V491.682C352.022 494.97 352.041 506.479 352.207 521.979C349.935 523.364 347.61 524.667 345.233 525.886C343.792 526.625 342.342 527.327 340.864 527.992C340.495 528.158 340.116 528.334 339.737 528.491C337.16 529.636 334.528 530.68 331.849 531.603Z" fill="#2F2E41"/>
<path d="M270.922 440.399C270.922 440.399 272.954 436.829 272.482 424.903C272.009 412.977 290.17 419.722 305.345 418.585C320.52 417.447 317.308 438.496 317.308 438.496C317.308 438.496 318.402 437.244 320.746 427.086C323.09 416.927 317.768 406.804 317.768 406.804C316.201 396.129 307.754 399.55 307.754 399.55C311.822 401.134 311.04 404.52 311.04 404.52C307.597 398.483 299.15 401.904 299.15 401.904C287.884 394.834 276.466 404.144 276.466 404.144C262.856 407.233 270.837 418.056 270.837 418.056C257.15 424.973 270.922 440.399 270.922 440.399Z" fill="#2F2E41"/>
<path d="M233.062 516.788C233.413 508.668 233.57 503.431 233.385 502.702C232.434 498.896 245.421 493.797 246.603 493.345C246.63 493.331 246.657 493.318 246.686 493.308L249.328 494.721L250.565 527.253C248.561 526.311 246.597 525.304 244.672 524.232C240.645 522.005 236.767 519.518 233.062 516.788Z" fill="#2F2E41"/>
<path d="M352.207 521.979C349.935 523.364 347.61 524.667 345.233 525.886C343.792 526.625 342.342 527.327 340.864 527.992C340.494 528.158 340.116 528.334 339.737 528.491L335.581 487.452L338.01 485.678C338.01 485.678 338.232 485.734 338.629 485.826H338.638C340.587 486.306 346.572 487.895 350.008 489.992C350.775 490.426 351.455 490.999 352.013 491.682C352.352 492.089 352.521 492.612 352.484 493.141C352.373 494.213 354.221 504.373 356.955 518.903C355.403 519.974 353.82 521 352.207 521.979Z" fill="#2F2E41"/>
<path d="M145.956 452.262H106.223V274.136H108.07V450.415H145.956V452.262Z" fill="#F1F1F1"/>
<path d="M486.785 452.262H447.052V450.415H484.938V272.484H486.785V452.262Z" fill="#F1F1F1"/>
<path d="M485.854 234.944C499.34 234.944 510.272 224.011 510.272 210.525C510.272 197.039 499.34 186.107 485.854 186.107C472.368 186.107 461.435 197.039 461.435 210.525C461.435 224.011 472.368 234.944 485.854 234.944Z" fill="#F87C13"/>
<path d="M483.527 220.833L476.218 211.436L480.469 208.13L483.929 212.579L495.62 200.239L499.529 203.942L483.527 220.833Z" fill="white"/>
<path d="M107.146 236.85C120.632 236.85 131.565 225.917 131.565 212.431C131.565 198.945 120.632 188.012 107.146 188.012C93.6601 188.012 82.7275 198.945 82.7275 212.431C82.7275 225.917 93.6601 236.85 107.146 236.85Z" fill="#F87C13"/>
<path d="M104.819 222.739L97.5103 213.341L101.761 210.036L105.221 214.485L116.912 202.145L120.821 205.848L104.819 222.739Z" fill="white"/>
<path d="M296.5 561.984C309.986 561.984 320.918 551.051 320.918 537.565C320.918 524.079 309.986 513.146 296.5 513.146C283.014 513.146 272.081 524.079 272.081 537.565C272.081 551.051 283.014 561.984 296.5 561.984Z" fill="#F87C13"/>
<path d="M294.173 547.873L286.864 538.476L291.115 535.17L294.575 539.619L306.266 527.279L310.175 530.982L294.173 547.873Z" fill="white"/>
</g>
<defs>
<clipPath id="clip0">
<rect width="593" height="561.984" fill="white"/>
</clipPath>
</defs>
</svg>
