<svg width="610" height="482" viewBox="0 0 610 482" fill="none" xmlns="http://www.w3.org/2000/svg">
<g clip-path="url(#clip0)">
<path d="M191.534 252.769L197.686 271.664L206.035 264.633L201.641 249.693L191.534 252.769Z" fill="#FFB9B9"/>
<path d="M112.437 172.354L114.634 201.795L167.805 203.114L191.095 256.284L203.838 251.011C203.838 251.011 189.337 200.917 182.745 185.097C176.154 169.278 151.107 180.703 151.107 180.703L148.909 176.309L112.437 172.354Z" fill="#2F2E41"/>
<path d="M195.049 268.149C195.049 268.149 195.928 282.211 197.246 283.089C198.565 283.968 208.672 282.211 208.672 282.211C208.672 282.211 211.708 282.885 224.052 279.574C237.928 275.851 222.294 270.346 222.294 270.346C222.294 270.346 212.187 263.755 207.793 260.679C203.398 257.603 200.322 264.194 200.322 264.194C201.201 266.831 195.049 268.149 195.049 268.149Z" fill="#2F2E41"/>
<path d="M546.625 325.085L548.024 374.046L562.946 431.399C562.946 431.399 559.682 441.191 562.013 443.523C564.344 445.854 575.069 450.051 575.069 450.051L566.21 327.883L546.625 325.085Z" fill="#2F2E41"/>
<path d="M579.02 443.284C579.02 443.284 584.341 454.99 576.892 456.054C569.442 457.119 535.032 459.957 537.161 453.926C539.289 447.895 565.185 442.219 565.185 442.219L579.02 443.284Z" fill="#2F2E41"/>
<path d="M598.85 281.72C598.85 281.72 593.254 312.029 589.524 317.158C585.794 322.287 591.389 359.591 591.389 359.591C591.389 359.591 599.782 413.214 596.052 421.607C592.322 430 593.254 427.203 593.721 431.865C594.187 436.528 595.119 440.259 593.721 444.455C592.322 448.652 592.322 448.186 591.855 450.517C591.389 452.848 591.855 465.438 591.855 465.438C591.855 465.438 571.805 472.433 568.541 462.174C568.541 462.174 573.204 455.646 571.805 450.517C570.346 445.355 569.563 440.026 569.473 434.663V424.871L548.024 344.669L542.895 315.759C542.895 315.759 544.294 286.383 549.423 283.585C554.552 280.788 598.85 281.72 598.85 281.72Z" fill="#2F2E41"/>
<path d="M590.457 463.107C590.457 463.107 597.451 478.494 587.659 479.893C577.867 481.292 532.637 485.022 535.434 477.095C538.232 469.169 572.271 461.708 572.271 461.708L590.457 463.107Z" fill="#2F2E41"/>
<path d="M581.592 147.448C591.893 147.448 600.244 139.098 600.244 128.797C600.244 118.496 591.893 110.145 581.592 110.145C571.291 110.145 562.94 118.496 562.94 128.797C562.94 139.098 571.291 147.448 581.592 147.448Z" fill="#FFB9B9"/>
<path d="M594.698 137.039L594.351 160.858L571.484 160.936C571.484 160.936 577.287 142.289 574.688 138.39C572.088 134.491 594.698 137.039 594.698 137.039Z" fill="#FFB9B9"/>
<path d="M560.614 174.007C560.614 174.007 576.934 153.024 589.524 161.884C602.114 170.743 606.777 191.726 606.777 191.726L603.979 250.479C603.979 250.479 596.985 258.872 601.181 264.468C605.378 270.063 607.709 268.664 604.445 272.861C601.181 277.057 597.451 280.321 598.85 281.72C600.249 283.119 597.451 284.052 597.451 284.052L548.024 285.451C548.024 285.451 549.423 283.585 545.226 277.99C541.03 272.394 546.159 264.934 545.226 262.136C544.294 259.338 543.361 262.602 542.895 256.074C542.429 249.546 560.614 174.007 560.614 174.007Z" fill="#3F3D56"/>
<path d="M565.276 294.31C565.276 294.31 564.343 305.967 557.349 307.832C554.726 308.532 552.759 307.199 551.325 305.259C549.985 303.4 549.234 301.182 549.169 298.891C549.104 296.601 549.727 294.344 550.959 292.411L552.686 289.647L565.276 294.31Z" fill="#FFB9B9"/>
<path d="M608.409 150.46C608.409 150.46 608.875 159.786 608.409 161.184C607.942 162.583 607.476 163.982 608.409 165.381C609.341 166.78 608.875 171.443 607.942 171.909C607.01 172.375 609.808 176.572 608.875 179.37C607.942 182.167 607.01 183.1 606.544 184.033C606.077 184.965 605.326 186.636 605.326 186.636C605.326 186.636 591.622 157.454 580.431 164.448C569.24 171.443 560.381 173.774 560.381 173.774C560.381 173.774 566.443 141.134 608.409 150.46Z" fill="#3F3D56"/>
<path d="M588.124 172.142C588.124 172.142 603.046 173.541 602.113 193.125C601.18 212.709 603.512 243.485 603.512 243.485C603.512 243.485 577.866 282.653 573.669 285.451C569.473 288.248 569.006 287.782 569.473 290.113C569.939 292.445 570.405 294.31 568.54 296.175C567.439 297.284 566.182 298.226 564.81 298.973C564.81 298.973 549.889 293.844 551.287 289.181C552.686 284.518 559.214 277.057 559.214 277.057C559.214 277.057 570.405 258.872 570.872 256.074C571.338 253.277 571.338 253.743 572.737 252.344C574.136 250.945 577.866 245.35 577.866 242.552V233.692L573.957 186.347C573.779 184.419 574.012 182.475 574.639 180.643C575.266 178.811 576.274 177.132 577.597 175.717C579.816 173.396 583.17 171.548 588.124 172.142Z" fill="#3F3D56"/>
<path d="M569.563 114.413C568.348 114.75 567.068 114.779 565.838 114.497C564.609 114.216 563.469 113.633 562.521 112.801C560.698 111.069 560.085 108.068 561.382 105.914C562.502 104.054 564.68 103.144 566.753 102.497C571.325 101.072 576.086 100.346 580.875 100.343C583.158 100.343 585.542 100.537 587.496 101.719C588.462 102.303 589.281 103.106 590.237 103.708C591.994 104.815 594.104 105.183 596.034 105.953C598.007 106.755 599.784 107.971 601.247 109.519C602.709 111.068 603.821 112.912 604.509 114.928C604.951 116.295 605.228 117.71 605.333 119.143C605.648 123.069 604.954 127.01 603.317 130.592C600.715 136.265 595.764 141.036 595.064 147.237C592.398 145 591.617 141.246 589.552 138.444C588.015 136.373 585.821 134.883 583.328 134.22C582.631 134.128 581.977 133.835 581.443 133.377C581.084 132.881 580.879 132.291 580.854 131.679L579.574 122.465C579.313 120.589 578.962 118.54 577.523 117.31C576.62 116.638 575.574 116.184 574.467 115.984C571.848 115.333 569.181 114.898 566.491 114.683" fill="#2F2E41"/>
<path opacity="0.1" d="M601.245 250.145L575.069 284.114C575.069 284.114 599.172 263.966 601.245 250.145Z" fill="black"/>
<path opacity="0.1" d="M576.119 212.536L576.367 244.617L561.165 267.421L573.603 241.853L576.119 212.536Z" fill="black"/>
<path d="M416.697 197.312H258.152V194.044H186.262V197.312H27.0632C24.219 197.312 21.4912 198.442 19.48 200.453C17.4688 202.464 16.3389 205.192 16.3389 208.037V425.133C16.3389 427.978 17.4688 430.705 19.48 432.716C21.4912 434.728 24.219 435.858 27.0632 435.858H416.697C418.105 435.858 419.5 435.58 420.801 435.041C422.102 434.502 423.284 433.712 424.28 432.716C425.276 431.721 426.066 430.538 426.605 429.237C427.144 427.936 427.421 426.542 427.421 425.133V208.037C427.421 206.628 427.144 205.234 426.605 203.933C426.066 202.631 425.276 201.449 424.28 200.453C423.284 199.457 422.102 198.667 420.801 198.129C419.5 197.59 418.105 197.312 416.697 197.312Z" fill="#3F3D56"/>
<path opacity="0.1" d="M413.043 216.265H30.7168V431.936H413.043V216.265Z" fill="black"/>
<path d="M221.554 210.383C223.719 210.383 225.475 208.628 225.475 206.462C225.475 204.296 223.719 202.541 221.554 202.541C219.388 202.541 217.632 204.296 217.632 206.462C217.632 208.628 219.388 210.383 221.554 210.383Z" fill="#FF7F11"/>
<path d="M411.271 216.157H31.3589V431.749H411.271V216.157Z" fill="#E6E6E6"/>
<path d="M400.407 230.889H42.2222V418.162H400.407V230.889Z" fill="white"/>
<path d="M166.805 250.32H74.7681V398.731H166.805V250.32Z" fill="#E6E6E6"/>
<path d="M259.39 250.32H182.692V291.172H259.39V250.32Z" fill="#FF7F11"/>
<path d="M259.39 302.548H182.692V346.502H259.39V302.548Z" fill="#E6E6E6"/>
<path d="M259.39 357.879H182.692V398.731H259.39V357.879Z" fill="#E6E6E6"/>
<path d="M367.861 250.32H275.824V314.997H367.861V250.32Z" fill="#E6E6E6"/>
<path d="M367.861 334.054H275.824V398.731H367.861V334.054Z" fill="#FF7F11"/>
<path d="M438.156 428.015H400.843V425.327C400.843 425.257 400.83 425.187 400.803 425.123C400.776 425.058 400.737 424.999 400.687 424.95C400.638 424.9 400.579 424.861 400.514 424.834C400.45 424.807 400.38 424.794 400.31 424.794H387.518C387.448 424.794 387.378 424.807 387.314 424.834C387.249 424.861 387.19 424.9 387.141 424.95C387.091 424.999 387.052 425.058 387.025 425.123C386.998 425.187 386.984 425.257 386.984 425.327V428.015H378.989V425.327C378.989 425.257 378.975 425.187 378.948 425.123C378.922 425.058 378.882 424.999 378.833 424.95C378.783 424.9 378.725 424.861 378.66 424.834C378.595 424.807 378.526 424.794 378.456 424.794H365.663C365.593 424.794 365.524 424.807 365.459 424.834C365.394 424.861 365.336 424.9 365.286 424.95C365.237 424.999 365.197 425.058 365.171 425.123C365.144 425.187 365.13 425.257 365.13 425.327V428.015H357.134V425.327C357.134 425.257 357.121 425.187 357.094 425.123C357.067 425.058 357.028 424.999 356.978 424.95C356.929 424.9 356.87 424.861 356.805 424.834C356.741 424.807 356.671 424.794 356.601 424.794H343.809C343.738 424.794 343.669 424.807 343.605 424.834C343.54 424.861 343.481 424.9 343.432 424.95C343.382 424.999 343.343 425.058 343.316 425.123C343.289 425.187 343.275 425.257 343.275 425.327V428.015H335.28V425.327C335.28 425.257 335.266 425.187 335.239 425.123C335.213 425.058 335.173 424.999 335.124 424.95C335.074 424.9 335.016 424.861 334.951 424.834C334.886 424.807 334.817 424.794 334.747 424.794H321.954C321.884 424.794 321.815 424.807 321.75 424.834C321.685 424.861 321.627 424.9 321.577 424.95C321.528 424.999 321.488 425.058 321.462 425.123C321.435 425.187 321.421 425.257 321.421 425.327V428.015H313.425V425.327C313.425 425.257 313.412 425.187 313.385 425.123C313.358 425.058 313.319 424.999 313.269 424.95C313.22 424.9 313.161 424.861 313.096 424.834C313.032 424.807 312.962 424.794 312.892 424.794H300.1C300.03 424.794 299.96 424.807 299.896 424.834C299.831 424.861 299.772 424.9 299.723 424.95C299.673 424.999 299.634 425.058 299.607 425.123C299.58 425.187 299.566 425.257 299.566 425.327V428.015H291.571V425.327C291.571 425.257 291.557 425.187 291.53 425.123C291.504 425.058 291.464 424.999 291.415 424.95C291.365 424.9 291.307 424.861 291.242 424.834C291.177 424.807 291.108 424.794 291.038 424.794H278.245C278.175 424.794 278.106 424.807 278.041 424.834C277.976 424.861 277.918 424.9 277.868 424.95C277.819 424.999 277.779 425.058 277.753 425.123C277.726 425.187 277.712 425.257 277.712 425.327V428.015H269.716V425.327C269.716 425.257 269.703 425.187 269.676 425.123C269.649 425.058 269.61 424.999 269.56 424.95C269.511 424.9 269.452 424.861 269.387 424.834C269.323 424.807 269.253 424.794 269.183 424.794H168.973C168.831 424.794 168.696 424.85 168.596 424.95C168.496 425.05 168.44 425.185 168.44 425.327V428.015H160.444V425.327C160.444 425.257 160.43 425.187 160.403 425.123C160.377 425.058 160.337 424.999 160.288 424.95C160.238 424.9 160.18 424.861 160.115 424.834C160.05 424.807 159.981 424.794 159.911 424.794H147.118C146.977 424.794 146.841 424.85 146.741 424.95C146.641 425.05 146.585 425.185 146.585 425.327V428.015H138.589V425.327C138.589 425.257 138.576 425.187 138.549 425.123C138.522 425.058 138.483 424.999 138.433 424.95C138.384 424.9 138.325 424.861 138.26 424.834C138.196 424.807 138.126 424.794 138.056 424.794H125.264C125.122 424.794 124.987 424.85 124.887 424.95C124.787 425.05 124.731 425.185 124.731 425.327V428.015H116.735V425.327C116.735 425.257 116.721 425.187 116.694 425.123C116.668 425.058 116.628 424.999 116.579 424.95C116.529 424.9 116.471 424.861 116.406 424.834C116.341 424.807 116.272 424.794 116.202 424.794H103.409C103.268 424.794 103.132 424.85 103.032 424.95C102.932 425.05 102.876 425.185 102.876 425.327V428.015H94.8805V425.327C94.8805 425.257 94.8667 425.187 94.8399 425.123C94.8131 425.058 94.7738 424.999 94.7244 424.95C94.6749 424.9 94.6161 424.861 94.5515 424.834C94.4868 424.807 94.4175 424.794 94.3475 424.794H81.5546C81.4132 424.794 81.2776 424.85 81.1777 424.95C81.0777 425.05 81.0216 425.185 81.0216 425.327V428.015H73.026V425.327C73.026 425.257 73.0122 425.187 72.9854 425.123C72.9586 425.058 72.9194 424.999 72.8699 424.95C72.8204 424.9 72.7616 424.861 72.697 424.834C72.6323 424.807 72.563 424.794 72.493 424.794H59.7001C59.5587 424.794 59.4231 424.85 59.3232 424.95C59.2232 425.05 59.167 425.185 59.167 425.327V428.015H51.1715V425.327C51.1715 425.257 51.1577 425.187 51.1309 425.123C51.1041 425.058 51.0649 424.999 51.0154 424.95C50.9659 424.9 50.9071 424.861 50.8424 424.834C50.7778 424.807 50.7085 424.794 50.6385 424.794H37.8456C37.7042 424.794 37.5686 424.85 37.4687 424.95C37.3687 425.05 37.3125 425.185 37.3125 425.327V428.015H12.7929C9.39999 428.015 6.14608 429.363 3.74695 431.762C1.34782 434.161 0 437.415 0 440.808V446.592C5.49818e-06 449.985 1.34783 453.239 3.74696 455.638C6.14609 458.038 9.39999 459.385 12.7929 459.385H438.156C441.549 459.385 444.803 458.038 447.202 455.638C449.601 453.239 450.949 449.985 450.949 446.592V440.808C450.949 437.415 449.601 434.161 447.202 431.762C444.803 429.363 441.549 428.015 438.156 428.015Z" fill="#3F3D56"/>
<path d="M95.5994 54.2831C93.2708 57.3944 91.861 61.0962 91.53 64.9683C91.0558 69.6816 89.6758 77.2202 85.6601 81.1827C79.5418 87.2198 77.5024 91.7476 77.5024 91.7476L79.5419 94.0115C79.5419 89.4837 82.2611 88.729 82.2611 88.729L81.5813 94.0115C99.936 111.368 140.724 95.5208 140.724 95.5208L139.365 81.9373C142.764 83.4466 144.123 94.0115 144.123 94.0115L149.562 92.5022C149.562 92.5022 140.044 75.9002 133.926 60.8074C127.808 45.7146 118.291 49.4878 118.291 49.4878C107.074 43.4926 99.6653 49.0523 95.5994 54.2831Z" fill="#2F2E41"/>
<path d="M159.456 62.0575L166.047 18.9936C166.047 18.9936 159.017 1.85592 170.881 0.0982108C182.746 -1.6595 174.836 20.7513 174.836 20.7513L170.881 62.0575H159.456Z" fill="#FFB9B9"/>
<path d="M154.183 264.633C156.38 268.149 156.819 286.165 156.819 286.165L172.199 276.498L167.805 260.679L154.183 264.633Z" fill="#FFB9B9"/>
<path d="M132.65 170.157C132.65 170.157 113.315 170.157 102.769 176.309C99.3793 178.286 98.3956 181.852 98.6216 185.782C99.2118 196.048 107.596 204.155 117.859 204.79L147.591 206.629C143.197 218.933 153.303 266.831 153.303 266.831L169.123 264.633C169.123 264.633 166.926 248.375 167.365 247.496C167.804 246.617 171.759 212.342 169.123 194.325C166.486 176.309 130.453 183.779 130.453 183.779L132.65 170.157Z" fill="#2F2E41"/>
<path d="M155.94 282.211C155.94 282.211 154.622 294.954 155.061 296.712C155.501 298.469 173.517 299.348 189.776 294.515C206.035 289.681 187.579 284.408 187.579 284.408C187.579 284.408 176.593 276.937 173.517 274.301C170.441 271.664 166.047 277.816 166.047 277.816C165.168 281.771 155.94 282.211 155.94 282.211Z" fill="#2F2E41"/>
<path d="M128.931 79.5311C130.331 70.9071 124.474 62.7815 115.85 61.382C107.226 59.9825 99.1004 65.8392 97.7009 74.4632C96.3015 83.0872 102.158 91.2129 110.782 92.6123C119.406 94.0118 127.532 88.1551 128.931 79.5311Z" fill="#FFB9B9"/>
<path d="M106.724 88.8626C112.437 97.2117 105.406 102.045 105.406 102.045L102.33 124.896C102.33 124.896 135.287 127.972 141 123.577C146.712 119.183 134.408 104.682 130.014 103.364C125.62 102.045 124.741 84.0289 124.741 84.0289L106.724 88.8626Z" fill="#FFB9B9"/>
<path d="M107.584 99.7042L90.2456 96.9919L88.2682 115.668C88.2682 115.668 89.1471 157.413 88.2682 164.883C87.3894 172.354 103.209 180.703 103.209 180.703C103.209 180.703 126.059 178.945 130.453 176.748C134.847 174.551 148.909 178.945 148.909 178.945C150.476 179.032 152.044 178.808 153.523 178.286C156.16 177.407 146.712 114.789 146.712 114.789L138.363 95.454L128.256 99.4088L125.18 113.91L107.584 99.7042Z" fill="#FF7F11"/>
<path d="M144.955 114.349L162.532 91.9383L174.836 61.6179L157.698 55.0268L150.667 80.074L138.363 95.0147L137.924 97.651L144.955 114.349Z" fill="#FF7F11"/>
<path d="M89.5679 148.464L133.102 150.102C133.102 150.102 149.327 141.163 152.426 152.75C155.525 164.337 132.358 159.034 132.358 159.034L90.8705 159.814L89.5679 148.464Z" fill="#FFB9B9"/>
<path d="M93.3219 145.329L113.536 146.647L116.172 160.269C116.172 160.269 91.5642 159.83 81.8968 159.391C72.2294 158.951 81.8968 118.084 83.2151 105.781C84.5334 93.4766 91.1248 96.992 91.1248 96.992L95.0797 100.068L93.3219 145.329Z" fill="#FF7F11"/>
<path opacity="0.15" d="M96.8377 140.934L114.415 147.966L95.0797 144.01L93.7612 118.963L96.8377 140.934Z" fill="black"/>
<path d="M130.021 71.7318L100.998 72.4228L97.5425 57.9112H130.021V71.7318Z" fill="#2F2E41"/>
</g>
<defs>
<clipPath id="clip0">
<rect width="609.068" height="482" fill="white"/>
</clipPath>
</defs>
</svg>
